<svg xmlns="http://www.w3.org/2000/svg" width="971.981" height="927.987" viewBox="0 0 257.17 245.53" xmlns:v="https://vecta.io/nano"><style><![CDATA[.B{font-family:sans-serif}.C{text-anchor:end}.D{baseline-shift:sub}.E{font-size:65%}]]></style><defs><linearGradient id="A" x1="102.317" x2="102.317" y1="278.313" y2="39.906" gradientUnits="userSpaceOnUse"><stop stop-color="#d5ffff" offset="0"/><stop stop-color="#ffaca9" offset="1"/></linearGradient><path id="B" d="m135.72 277.11h-4.203"/><path id="C" d="m102.32 277.11h4.203"/><path id="D" d="m135.72 57.73h-8.406"/><path id="E" d="m102.32 42.495h8.406"/><path id="F" d="m135.72 102.87h31.956"/></defs><path fill="#fff" d="M0 0h257.17v245.53H0z"/><g transform="translate(16.187 -38.441)"><path fill="url(#A)" d="M102.32 39.906h33.403v238.41H102.32z"/><g fill="none" stroke="#000" stroke-width=".5"><use href="#B"/><use href="#B" y="-231.568"/><use href="#B" y="-228.521"/><use href="#B" y="-225.474"/><use href="#B" y="-222.427"/><use href="#B" y="-216.333"/><use href="#B" y="-213.286"/><use href="#B" y="-210.239"/><use href="#B" y="-207.193"/><use href="#B" y="-201.099"/><use href="#B" y="-198.052"/><use href="#B" y="-195.005"/><use href="#B" y="-191.958"/><use href="#B" y="-185.864"/><use href="#B" y="-182.818"/><use href="#B" y="-179.771"/><use href="#B" y="-176.72"/><use href="#B" y="-170.63"/><use href="#B" y="-167.58"/><use href="#B" y="-164.54"/><use href="#B" y="-161.49"/><use href="#B" y="-155.4"/><use href="#B" y="-152.35"/><use href="#B" y="-149.3"/><use href="#B" y="-146.25"/><use href="#B" y="-140.16"/><use href="#B" y="-137.11"/><use href="#B" y="-134.07"/><use href="#B" y="-131.02"/><use href="#B" y="-124.93"/><use href="#B" y="-121.88"/><use href="#B" y="-118.83"/><use href="#B" y="-115.79"/><use href="#B" y="-109.69"/><use href="#B" y="-106.65"/><use href="#B" y="-103.6"/><use href="#B" y="-100.55"/><use href="#B" y="-94.46"/><use href="#B" y="-91.41"/><use href="#B" y="-88.36"/><use href="#B" y="-85.32"/><use href="#B" y="-79.22"/><use href="#B" y="-76.18"/><use href="#B" y="-73.13"/><use href="#B" y="-70.08"/><use href="#B" y="-63.99"/><use href="#B" y="-60.94"/><use href="#B" y="-57.9"/><use href="#B" y="-54.85"/><use href="#B" y="-48.75"/><use href="#B" y="-45.71"/><use href="#B" y="-42.66"/><use href="#B" y="-39.61"/><use href="#B" y="-33.52"/><use href="#B" y="-30.47"/><use href="#B" y="-27.43"/><use href="#B" y="-24.38"/><use href="#B" y="-18.29"/><use href="#B" y="-15.24"/><use href="#B" y="-12.19"/><use href="#B" y="-9.14"/><use href="#B" y="-3.05"/><use href="#C"/><use href="#C" y="-231.568"/><use href="#C" y="-228.521"/><use href="#C" y="-225.474"/><use href="#C" y="-222.427"/><use href="#C" y="-216.333"/><use href="#C" y="-213.286"/><use href="#C" y="-210.239"/><use href="#C" y="-207.193"/><use href="#C" y="-201.099"/><use href="#C" y="-198.052"/><use href="#C" y="-195.005"/><use href="#C" y="-191.958"/><use href="#C" y="-185.864"/><use href="#C" y="-182.818"/><use href="#C" y="-179.771"/><use href="#C" y="-176.72"/><use href="#C" y="-170.63"/><use href="#C" y="-167.58"/><use href="#C" y="-164.54"/><use href="#C" y="-161.49"/><use href="#C" y="-155.4"/><use href="#C" y="-152.35"/><use href="#C" y="-149.3"/><use href="#C" y="-146.25"/><use href="#C" y="-140.16"/><use href="#C" y="-137.11"/><use href="#C" y="-134.07"/><use href="#C" y="-131.02"/><use href="#C" y="-124.93"/><use href="#C" y="-121.88"/><use href="#C" y="-118.83"/><use href="#C" y="-115.79"/><use href="#C" y="-109.69"/><use href="#C" y="-106.65"/><use href="#C" y="-103.6"/><use href="#C" y="-100.55"/><use href="#C" y="-94.46"/><use href="#C" y="-91.41"/><use href="#C" y="-88.36"/><use href="#C" y="-85.32"/><use href="#C" y="-79.22"/><use href="#C" y="-76.18"/><use href="#C" y="-73.13"/><use href="#C" y="-70.08"/><use href="#C" y="-63.99"/><use href="#C" y="-60.94"/><use href="#C" y="-57.9"/><use href="#C" y="-54.85"/><use href="#C" y="-48.75"/><use href="#C" y="-45.71"/><use href="#C" y="-42.66"/><use href="#C" y="-39.61"/><use href="#C" y="-33.52"/><use href="#C" y="-30.47"/><use href="#C" y="-27.43"/><use href="#C" y="-24.38"/><use href="#C" y="-18.29"/><use href="#C" y="-15.24"/><use href="#C" y="-12.19"/><use href="#C" y="-9.14"/><use href="#C" y="-3.05"/><use href="#D"/><use href="#D" y="15.234"/><use href="#D" y="30.469"/><use href="#D" y="45.7"/><use href="#D" y="60.94"/><use href="#D" y="76.17"/><use href="#D" y="91.41"/><use href="#D" y="106.64"/><use href="#D" y="121.88"/><use href="#D" y="137.11"/><use href="#D" y="152.34"/><use href="#D" y="167.58"/><use href="#D" y="182.81"/><use href="#D" y="198.05"/><use href="#D" y="213.28"/><use href="#D" y="-15.235"/><use href="#E"/><use href="#E" y="15.235"/><use href="#E" y="30.469"/><use href="#E" y="45.704"/><use href="#E" y="60.935"/><use href="#E" y="76.175"/><use href="#E" y="91.405"/><use href="#E" y="106.645"/><use href="#E" y="121.875"/><use href="#E" y="137.115"/><use href="#E" y="152.345"/><use href="#E" y="167.575"/><use href="#E" y="182.815"/><use href="#E" y="198.045"/><use href="#E" y="213.285"/><use href="#E" y="228.515"/><path d="M135.72 39.906v238.41m-33.4-238.41v238.41"/></g><g font-family="KacstPoster" font-size="8.902" letter-spacing="0"><text x="113.115" y="274.257" xml:space="preserve"><tspan x="113.115" y="274.257" class="B">14</tspan></text><text x="113.222" y="259.023" xml:space="preserve"><tspan x="113.222" y="259.023" class="B">13</tspan></text><text x="113.311" y="243.788" xml:space="preserve"><tspan x="113.311" y="243.788" class="B">12</tspan></text><text x="113.276" y="228.554" xml:space="preserve"><tspan x="113.276" y="228.554" class="B">11</tspan></text><text x="113.161" y="213.319" xml:space="preserve"><tspan x="113.161" y="213.319" class="B">10</tspan></text><text x="116.219" y="198.085" xml:space="preserve"><tspan x="116.219" y="198.085" class="B">9</tspan></text><text x="116.188" y="182.85" xml:space="preserve"><tspan x="116.188" y="182.85" class="B">8</tspan></text><text x="116.201" y="167.616" xml:space="preserve"><tspan x="116.201" y="167.616" class="B">7</tspan></text><text x="116.156" y="152.381" xml:space="preserve"><tspan x="116.156" y="152.381" class="B">6</tspan></text><text x="116.232" y="137.147" xml:space="preserve"><tspan x="116.232" y="137.147" class="B">5</tspan></text><text x="116.219" y="121.912" xml:space="preserve"><tspan x="116.219" y="121.912" class="B">4</tspan></text><text x="116.204" y="106.678" xml:space="preserve"><tspan x="116.204" y="106.678" class="B">3</tspan></text><text x="116.306" y="91.444" xml:space="preserve"><tspan x="116.306" y="91.444" class="B">2</tspan></text><text x="116.108" y="76.209" xml:space="preserve"><tspan x="116.108" y="76.209" class="B">1</tspan></text><text x="116.188" y="60.975" xml:space="preserve"><tspan x="116.188" y="60.975" class="B">0</tspan></text><text x="114.774" y="45.74" xml:space="preserve"><tspan x="114.774" y="45.74" class="B">-1</tspan></text></g><g fill="none" stroke="#000" stroke-width=".265"><path d="M102.32 55.139H70.364m31.956 35.464H70.364m31.956 52.847l-31.956-9.205m31.956 30.125H70.364m31.956 18.28l-32.007 15.442m32.007 53.598H70.364m31.956 14.01l-32.13 8.796m65.53-198.831l31.956-7.583M135.72 95.954l31.956-10.6"/><use href="#F"/><use href="#F" y="10.54"/><use href="#F" y="20.76"/><use href="#F" y="29.35"/><use href="#F" y="40.87"/><use href="#F" y="55.68"/><use href="#F" y="67.43"/><use href="#F" y="117.06"/><path d="M102.32 232.64l-31.956-5.821m31.956-47.209H70.364"/></g><g font-size="7.144" letter-spacing="0" class="B"><text x="-10.783" y="166.342" xml:space="preserve"><tspan x="-10.783" y="166.342">freshly distilled water</tspan></text><text x="33.346" y="182.063" xml:space="preserve"><tspan x="33.346" y="182.063">seawater</tspan></text><text x="66.81" y="195.48" xml:space="preserve" class="C"><tspan x="66.81" y="195.48">          baking soda</tspan><tspan x="66.81" y="204.642">(NaHCO<tspan class="D E">3</tspan> solution)</tspan></text><text x="66.81" y="224.21" xml:space="preserve" class="C"><tspan x="66.81" y="224.21">household</tspan><tspan x="66.81" y="233.372">ammonia (NH<tspan class="D E">3</tspan>)</tspan></text><text x="66.803" y="249.354" xml:space="preserve" class="C"><tspan x="66.803" y="249.354">household bleach</tspan><tspan x="66.803" y="258.517">(NaClO solution)</tspan></text><text x="66.576" y="272.153" xml:space="preserve" class="C"><tspan x="66.576" y="272.153">household lye</tspan><tspan x="66.576" y="281.315">(NaOH solution)</tspan></text><text x="23.672" y="57.11" xml:space="preserve"><tspan x="23.672" y="57.11">battery acid</tspan></text><text x="171.446" y="70.051" xml:space="preserve"><tspan x="171.446" y="70.051">gastric fluid</tspan></text><text x="171.628" y="104.844" xml:space="preserve"><tspan x="171.628" y="104.844">vinegar</tspan></text><text x="171.446" y="115.382" xml:space="preserve"><tspan x="171.446" y="115.382">orange juice</tspan></text><text x="171.192" y="126.295" xml:space="preserve"><tspan x="171.192" y="126.295">beer</tspan></text><text x="171.446" y="134.88" xml:space="preserve"><tspan x="171.446" y="134.88">coffee</tspan></text><text x="171.446" y="145.712" xml:space="preserve"><tspan x="171.446" y="145.712">egg yolks</tspan></text><text x="171.192" y="161.268" xml:space="preserve"><tspan x="171.192" y="161.268">milk</tspan></text><text x="171.192" y="172.963" xml:space="preserve"><tspan x="171.192" y="172.963">blood</tspan></text><text x="171.227" y="217.324" xml:space="preserve"><tspan x="171.227" y="217.324">milk of magnesia</tspan><tspan x="171.227" y="226.486">(Mg<tspan font-size="6.439">(</tspan>OH<tspan font-size="6.439">)</tspan><tspan class="D E">2</tspan>) solution</tspan></text><text x="171.446" y="82.743" xml:space="preserve"><tspan x="171.446" y="82.743">carbonated </tspan><tspan x="171.446" y="91.906">beverages</tspan></text><text x="25.246" y="92.574" xml:space="preserve"><tspan x="25.246" y="92.574">lemon juice</tspan></text><text x="66.803" y="127.057" xml:space="preserve" class="C"><tspan x="66.803" y="127.057">pure rain (H<tspan class="D E">2</tspan>O in</tspan><tspan x="66.803" y="136.22">equilibrium with</tspan><tspan x="66.803" y="145.382">atmospheric CO<tspan class="D E">2</tspan>)</tspan></text></g></g></svg>